HIERARCHY
ROOT pelvis
{
	OFFSET 0.003123 -0.351407 0.012037
	CHANNELS 6 Xposition Yposition Zposition Zrotation Yrotation Xrotation 
	JOINT left_hip
	{
		OFFSET 0.058189 -0.092763 -0.026001
		CHANNELS 3 Zrotation Yrotation Xrotation
		JOINT left_knee
		{
			OFFSET 0.054695 -0.378753 -0.009396
			CHANNELS 3 Zrotation Yrotation Xrotation
			JOINT left_ankle
			{
				OFFSET -0.043453 -0.403059 -0.031876
				CHANNELS 3 Zrotation Yrotation Xrotation
				JOINT left_foot
				{
					OFFSET 0.047257 -0.057997 0.118216
					CHANNELS 3 Zrotation Yrotation Xrotation
					End Site
					{
						OFFSET 0.000000 0.000000 0.000000
					}
				}
			}
		}
	}
	JOINT right_hip
	{
		OFFSET -0.063267 -0.103908 -0.021250
		CHANNELS 3 Zrotation Yrotation Xrotation
		JOINT right_knee
		{
			OFFSET -0.044210 -0.362380 -0.016824
			CHANNELS 3 Zrotation Yrotation Xrotation
			JOINT right_ankle
			{
				OFFSET 0.015417 -0.410728 -0.020192
				CHANNELS 3 Zrotation Yrotation Xrotation
				JOINT right_foot
				{
					OFFSET -0.038812 -0.058328 0.119049
					CHANNELS 3 Zrotation Yrotation Xrotation
					End Site
					{
						OFFSET 0.000000 0.000000 0.000000
					}
				}
			}
		}
	}
	JOINT spine_1
	{
		OFFSET -0.002763 0.109891 -0.027618
		CHANNELS 3 Zrotation Yrotation Xrotation
		JOINT spine_2
		{
			OFFSET 0.009448 0.131853 -0.005940
			CHANNELS 3 Zrotation Yrotation Xrotation
			JOINT spine_3
			{
				OFFSET -0.011330 0.052235 0.028447
				CHANNELS 3 Zrotation Yrotation Xrotation
				JOINT neck
				{
					OFFSET -0.012164 0.165167 -0.031615
					CHANNELS 3 Zrotation Yrotation Xrotation
					JOINT head
					{
						OFFSET 0.024783 0.160452 0.020737
						CHANNELS 3 Zrotation Yrotation Xrotation
						End Site
						{
							OFFSET 0.000000 0.000000 0.000000
						}
					}
				}
				JOINT left_collar
				{
					OFFSET 0.046364 0.084944 -0.007220
					CHANNELS 3 Zrotation Yrotation Xrotation
					JOINT left_shoulder
					{
						OFFSET 0.119239 0.057728 -0.015461
						CHANNELS 3 Zrotation Yrotation Xrotation
						JOINT left_elbow
						{
							OFFSET 0.254123 -0.072151 -0.042459
							CHANNELS 3 Zrotation Yrotation Xrotation
							JOINT left_wrist
							{
								OFFSET 0.251987 0.023221 -0.002472
								CHANNELS 3 Zrotation Yrotation Xrotation
								JOINT left_index_1
								{
									OFFSET 0.101902 -0.008688 0.019351
									CHANNELS 3 Zrotation Yrotation Xrotation
									JOINT left_index_2
									{
										OFFSET 0.030149 -0.011154 0.001151
										CHANNELS 3 Zrotation Yrotation Xrotation
										JOINT left_index_3
										{
											OFFSET 0.006504 -0.021577 -0.002433
											CHANNELS 3 Zrotation Yrotation Xrotation
											End Site
											{
												OFFSET 0.000000 0.000000 0.000000
											}
										}
									}
								}
								JOINT left_middle_1
								{
									OFFSET 0.109398 -0.006328 -0.003981
									CHANNELS 3 Zrotation Yrotation Xrotation
									JOINT left_middle_2
									{
										OFFSET 0.026472 -0.015218 -0.004641
										CHANNELS 3 Zrotation Yrotation Xrotation
										JOINT left_middle_3
										{
											OFFSET 0.005022 -0.023347 -0.001911
											CHANNELS 3 Zrotation Yrotation Xrotation
											End Site
											{
												OFFSET 0.000000 0.000000 0.000000
											}
										}
									}
								}
								JOINT left_pinky_1
								{
									OFFSET 0.084047 -0.014539 -0.043750
									CHANNELS 3 Zrotation Yrotation Xrotation
									JOINT left_pinky_2
									{
										OFFSET 0.012124 -0.014448 -0.005375
										CHANNELS 3 Zrotation Yrotation Xrotation
										JOINT left_pinky_3
										{
											OFFSET 0.003798 -0.018853 0.000167
											CHANNELS 3 Zrotation Yrotation Xrotation
											End Site
											{
												OFFSET 0.000000 0.000000 0.000000
											}
										}
									}
								}
								JOINT left_ring_1
								{
									OFFSET 0.097444 -0.009268 -0.027345
									CHANNELS 3 Zrotation Yrotation Xrotation
									JOINT left_ring_2
									{
										OFFSET 0.023561 -0.016057 -0.001895
										CHANNELS 3 Zrotation Yrotation Xrotation
										JOINT left_ring_3
										{
											OFFSET 0.004257 -0.023548 0.000814
											CHANNELS 3 Zrotation Yrotation Xrotation
											End Site
											{
												OFFSET 0.000000 0.000000 0.000000
											}
										}
									}
								}
								JOINT left_thumb_1
								{
									OFFSET 0.040636 -0.017977 0.025611
									CHANNELS 3 Zrotation Yrotation Xrotation
									JOINT left_thumb_2
									{
										OFFSET 0.021637 -0.017639 0.011623
										CHANNELS 3 Zrotation Yrotation Xrotation
										JOINT left_thumb_3
										{
											OFFSET 0.024002 -0.008356 0.006548
											CHANNELS 3 Zrotation Yrotation Xrotation
											End Site
											{
												OFFSET 0.000000 0.000000 0.000000
											}
										}
									}
								}
							}
						}
					}
				}
				JOINT right_collar
				{
					OFFSET -0.047695 0.084339 -0.013400
					CHANNELS 3 Zrotation Yrotation Xrotation
					JOINT right_shoulder
					{
						OFFSET -0.102578 0.053524 -0.012669
						CHANNELS 3 Zrotation Yrotation Xrotation
						JOINT right_elbow
						{
							OFFSET -0.271150 -0.036492 -0.026467
							CHANNELS 3 Zrotation Yrotation Xrotation
							JOINT right_wrist
							{
								OFFSET -0.249267 -0.004533 -0.015325
								CHANNELS 3 Zrotation Yrotation Xrotation
								JOINT right_index_1
								{
									OFFSET -0.099881 -0.011783 0.019600
									CHANNELS 3 Zrotation Yrotation Xrotation
									JOINT right_index_2
									{
										OFFSET -0.030148 -0.011154 0.001151
										CHANNELS 3 Zrotation Yrotation Xrotation
										JOINT right_index_3
										{
											OFFSET -0.006505 -0.021577 -0.002432
											CHANNELS 3 Zrotation Yrotation Xrotation
											End Site
											{
												OFFSET 0.000000 0.000000 0.000000
											}
										}
									}
								}
								JOINT right_middle_1
								{
									OFFSET -0.107376 -0.009422 -0.003734
									CHANNELS 3 Zrotation Yrotation Xrotation
									JOINT right_middle_2
									{
										OFFSET -0.026472 -0.015218 -0.004641
										CHANNELS 3 Zrotation Yrotation Xrotation
										JOINT right_middle_3
										{
											OFFSET -0.005022 -0.023347 -0.001911
											CHANNELS 3 Zrotation Yrotation Xrotation
											End Site
											{
												OFFSET 0.000000 0.000000 0.000000
											}
										}
									}
								}
								JOINT right_pinky_1
								{
									OFFSET -0.082027 -0.017634 -0.043503
									CHANNELS 3 Zrotation Yrotation Xrotation
									JOINT right_pinky_2
									{
										OFFSET -0.012123 -0.014448 -0.005374
										CHANNELS 3 Zrotation Yrotation Xrotation
										JOINT right_pinky_3
										{
											OFFSET -0.003798 -0.018852 0.000167
											CHANNELS 3 Zrotation Yrotation Xrotation
											End Site
											{
												OFFSET 0.000000 0.000000 0.000000
											}
										}
									}
								}
								JOINT right_ring_1
								{
									OFFSET -0.095423 -0.012362 -0.027099
									CHANNELS 3 Zrotation Yrotation Xrotation
									JOINT right_ring_2
									{
										OFFSET -0.023561 -0.016057 -0.001895
										CHANNELS 3 Zrotation Yrotation Xrotation
										JOINT right_ring_3
										{
											OFFSET -0.004257 -0.023548 0.000816
											CHANNELS 3 Zrotation Yrotation Xrotation
											End Site
											{
												OFFSET 0.000000 0.000000 0.000000
											}
										}
									}
								}
								JOINT right_thumb_1
								{
									OFFSET -0.038613 -0.021074 0.025861
									CHANNELS 3 Zrotation Yrotation Xrotation
									JOINT right_thumb_2
									{
										OFFSET -0.021636 -0.017639 0.011623
										CHANNELS 3 Zrotation Yrotation Xrotation
										JOINT right_thumb_3
										{
											OFFSET -0.024004 -0.008353 0.006547
											CHANNELS 3 Zrotation Yrotation Xrotation
											End Site
											{
												OFFSET 0.000000 0.000000 0.000000
											}
										}
									}
								}
							}
						}
					}
				}
			}
		}
	}
}
MOTION
Frames: 5
Frame Time: 0.050000
0.127228 0.964310 0.081100 -3.409377 -2.260431 -21.466366 -1.225762 3.826913 23.933913 3.873593 0.275362 -4.340660 1.636212 9.522040 9.978395 0.000000 0.000000 0.000000 2.235194 0.086427 -0.755056 -7.393250 4.038077 31.829763 -1.269777 -6.963778 8.162612 0.000000 0.000000 0.000000 -7.775043 -0.716074 26.170125 -5.726588 -1.250997 -16.175845 13.656670 -1.050924 22.505294 5.629256 0.772609 -9.160822 0.000000 0.000000 0.000000 -5.775380 -10.179049 5.067767 -65.557398 -22.225455 -4.377080 -6.038164 -44.594061 7.624905 -5.570473 8.965103 13.188685 -0.415392 1.031124 0.430733 -12.262956 5.787355 6.375981 0.000000 0.000000 0.000000 7.085061 -8.090417 -4.282790 -21.813990 6.379880 5.552838 0.000000 0.000000 0.000000 33.573046 -15.215971 -7.036526 -32.456863 3.817936 4.147977 0.000000 0.000000 0.000000 18.828302 -4.435688 -2.207567 -36.997787 3.628190 3.019487 0.000000 0.000000 0.000000 7.649874 29.923323 30.307431 12.761756 -5.717343 -6.724421 0.000000 0.000000 0.000000 10.062908 4.672104 1.596714 60.500026 7.224912 -5.152236 -14.447173 47.996802 -6.149367 14.475455 -12.330100 6.004828 9.397470 4.451137 -1.505588 -6.257235 -2.405587 9.276568 0.000000 0.000000 0.000000 14.445791 2.808093 -4.155156 -0.486390 -1.881768 6.647308 0.000000 0.000000 0.000000 -1.478857 9.643609 -11.538372 23.728080 -3.011389 6.388106 0.000000 0.000000 0.000000 14.830292 0.297144 -1.715423 3.304704 -2.047270 8.248882 0.000000 0.000000 0.000000 1.156063 -26.177662 26.735314 -15.077792 11.091513 -9.855414 0.000000 0.000000 0.000000 
0.130054 0.964632 0.079781 -3.884694 -1.542071 -21.203387 -1.064777 3.683651 23.634637 4.345957 0.285406 -4.538766 1.014306 8.501404 9.847067 0.000000 0.000000 0.000000 4.362779 0.220750 -1.611126 -7.264613 3.570197 29.094504 -1.496721 -7.325097 8.283736 0.000000 0.000000 0.000000 -7.685171 -0.760205 26.794658 -6.340109 -1.144364 -16.849437 13.577398 -1.623795 22.932112 5.769324 0.936445 -10.072743 0.000000 0.000000 0.000000 -5.732902 -9.753219 4.835985 -65.453070 -21.955502 -4.494413 -6.224613 -44.501994 7.710461 -5.670034 8.520968 12.550351 -0.231839 1.779007 0.755044 -15.366673 6.535420 6.344496 0.000000 0.000000 0.000000 3.167144 -8.228494 -4.738969 -25.405966 6.591466 4.496329 0.000000 0.000000 0.000000 31.629171 -16.397351 -10.544844 -34.920624 2.891290 2.152538 0.000000 0.000000 0.000000 15.636465 -6.007049 -3.654186 -36.827074 1.249375 -0.928740 0.000000 0.000000 0.000000 8.825586 30.582718 31.127232 13.393207 -6.512304 -7.308166 0.000000 0.000000 0.000000 10.192356 3.814220 1.057892 60.224521 6.096476 -5.631056 -13.678619 44.568004 -5.296019 13.787861 -11.727006 6.295517 9.460152 4.595905 -1.543932 -7.983764 -1.703388 8.259517 0.000000 0.000000 0.000000 15.222012 1.523447 -3.649972 -2.304517 -1.524801 6.492169 0.000000 0.000000 0.000000 1.545778 8.622868 -11.043146 24.358184 -2.636087 5.586834 0.000000 0.000000 0.000000 18.144087 -0.791140 -1.514385 4.716101 -1.783792 6.891803 0.000000 0.000000 0.000000 1.773855 -24.237938 24.627674 -12.835336 7.496933 -7.317487 0.000000 0.000000 0.000000 
0.131939 0.964954 0.078461 -4.068295 -1.034874 -20.496707 -1.172728 3.573487 23.014183 4.829910 0.356900 -5.140266 0.303215 7.587557 10.195957 0.000000 0.000000 0.000000 5.978822 0.408041 -2.650010 -7.136245 3.055571 25.358575 -1.880895 -7.919715 8.311233 0.000000 0.000000 0.000000 -8.282501 -0.683208 26.656048 -6.328498 -1.016387 -16.432275 13.857945 -0.701383 22.252828 5.628669 0.997438 -10.176399 0.000000 0.000000 0.000000 -6.288242 -9.951149 4.879843 -64.698913 -20.990555 -5.077846 -6.837462 -44.327980 7.846125 -5.912464 8.311114 11.540495 -0.777410 2.242522 0.952627 -16.114973 5.965208 5.230580 0.000000 0.000000 0.000000 -0.470680 -7.991715 -4.942206 -29.786734 5.330748 0.735348 0.000000 0.000000 0.000000 28.622636 -17.975242 -15.085862 -38.406946 1.020980 -1.213106 0.000000 0.000000 0.000000 6.311637 -7.144638 -4.626577 -35.538210 0.237605 -2.101200 0.000000 0.000000 0.000000 9.705865 31.118691 31.767390 13.573433 -7.111338 -7.604658 0.000000 0.000000 0.000000 9.886469 2.576802 0.430235 60.348688 4.241897 -6.139489 -13.826212 41.041852 -4.743376 14.031666 -12.407027 7.001271 8.970840 4.791598 -1.674112 -6.473670 -1.803779 7.532657 0.000000 0.000000 0.000000 15.495377 1.884671 -3.894007 -0.978173 -1.900635 6.988417 0.000000 0.000000 0.000000 5.134150 7.466424 -10.752322 24.047864 -1.991001 4.218874 0.000000 0.000000 0.000000 21.707156 -0.952213 -1.913079 4.010710 -1.540563 6.069299 0.000000 0.000000 0.000000 3.155586 -22.397837 22.951720 -14.666207 5.338424 -7.090170 0.000000 0.000000 0.000000 
0.133352 0.965277 0.075821 -4.495713 0.322267 -20.198195 -0.791642 3.324717 22.506550 4.753344 0.392851 -5.305475 -0.315280 6.578339 9.980496 0.000000 0.000000 0.000000 7.408613 0.477016 -2.877801 -6.853758 2.450237 20.986029 -2.456974 -8.660069 8.082965 0.000000 0.000000 0.000000 -8.586328 -0.690037 27.745044 -6.139543 -1.273488 -17.397138 13.312941 -1.266327 22.695579 5.952648 1.102305 -10.821681 0.000000 0.000000 0.000000 -6.023995 -8.631658 4.129366 -64.363461 -19.878133 -5.523878 -7.456090 -43.520910 7.924092 -5.873478 8.355777 12.038662 -2.912345 1.780230 0.759736 -16.515036 7.230042 7.122412 0.000000 0.000000 0.000000 -5.212512 -8.432026 -5.701480 -31.067234 6.592116 2.445099 0.000000 0.000000 0.000000 25.746133 -19.259891 -17.581205 -45.284308 0.268291 -2.893976 0.000000 0.000000 0.000000 -0.357551 -8.067623 -5.315690 -38.549094 -0.278229 -3.167142 0.000000 0.000000 0.000000 9.984403 31.230626 31.987292 12.505611 -7.554974 -7.366396 0.000000 0.000000 0.000000 9.471719 2.431618 0.421909 60.563280 3.264755 -6.501494 -14.136318 37.275413 -4.245739 14.350251 -13.181746 6.696376 9.151864 4.685566 -1.629959 -7.341730 -1.878216 8.219684 0.000000 0.000000 0.000000 15.785798 1.147417 -3.599491 -0.073092 -1.785227 5.844895 0.000000 0.000000 0.000000 6.404246 5.380447 -8.832873 29.185143 -2.771658 4.926411 0.000000 0.000000 0.000000 21.530604 -0.389659 -2.134342 9.389394 -1.538944 5.139454 0.000000 0.000000 0.000000 3.614005 -22.273780 22.901707 -14.328528 4.033672 -6.342657 0.000000 0.000000 0.000000 
0.134295 0.966244 0.073181 -4.725112 0.884105 -19.054497 -0.848548 3.078984 20.961718 4.728559 0.372690 -5.131555 -0.240560 6.702321 9.932697 0.000000 0.000000 0.000000 8.473071 0.710348 -4.043710 -6.488911 1.945460 16.782783 -2.198459 -8.130951 7.941845 0.000000 0.000000 0.000000 -8.687556 -0.682152 26.993235 -6.250103 -1.070037 -16.886766 13.428355 -1.112381 22.284090 5.257054 1.186473 -10.894174 0.000000 0.000000 0.000000 -6.573429 -8.250500 3.888867 -63.463409 -18.166469 -6.154411 -7.250493 -42.649770 7.633148 -6.287974 8.412605 12.893458 -2.106622 1.528019 0.655426 -13.840264 6.681813 7.253382 0.000000 0.000000 0.000000 -3.951327 -7.883196 -5.259059 -34.066580 6.186228 0.302462 0.000000 0.000000 0.000000 24.111647 -18.798084 -16.456646 -45.300236 0.523056 -3.021978 0.000000 0.000000 0.000000 -1.017415 -6.986606 -4.549336 -40.497267 -0.848331 -4.796373 0.000000 0.000000 0.000000 9.839847 29.559909 30.033332 11.271002 -6.594820 -6.490033 0.000000 0.000000 0.000000 8.698185 1.871495 0.198128 60.895279 2.133326 -6.877160 -14.783808 33.395888 -3.810931 14.692938 -13.882181 8.090914 9.188672 4.639725 -1.695235 -6.530409 -1.190751 5.393390 0.000000 0.000000 0.000000 16.787417 1.458879 -3.987812 -0.861523 -1.277828 4.304366 0.000000 0.000000 0.000000 4.612157 8.060820 -11.145755 30.424981 -4.059760 7.357148 0.000000 0.000000 0.000000 22.642051 1.162971 -3.102233 12.028921 -0.714059 2.019455 0.000000 0.000000 0.000000 3.900109 -23.160552 23.938634 -15.278475 4.960540 -7.195943 0.000000 0.000000 0.000000 
